<svg xmlns="http://www.w3.org/2000/svg" data-name="Layer 1" viewBox="0 0 100 125" x="0px" y="0px"><title>depth-ocean-sea-water</title><g><polygon points="56.81 57.211 48.727 52.747 40.643 57.211 32.56 52.747 24.476 57.211 16.876 53.014 15.91 54.764 16.395 55.033 16.393 55.032 24.476 59.496 24.476 59.496 24.477 59.496 32.56 55.032 40.643 59.496 48.727 55.032 56.81 59.496 56.81 59.496 56.81 59.496 64.893 55.032 64.891 55.033 65.376 54.764 64.41 53.014 56.81 57.211"/><polygon points="64.41 65.014 56.81 69.211 48.727 64.747 40.643 69.211 32.56 64.747 24.476 69.211 16.876 65.014 15.91 66.764 16.395 67.033 16.393 67.032 24.476 71.496 24.476 71.496 24.477 71.496 32.56 67.032 40.643 71.496 48.727 67.032 56.81 71.496 56.81 71.496 56.81 71.496 64.893 67.032 64.891 67.033 65.376 66.764 64.41 65.014"/><polygon points="56.81 45.211 48.727 40.747 40.643 45.211 32.56 40.747 24.476 45.211 16.876 41.014 15.91 42.765 20.609 45.359 24.476 47.495 24.476 47.495 24.477 47.495 32.56 43.031 40.643 47.495 48.727 43.031 56.81 47.495 56.81 47.495 56.81 47.495 60.677 45.359 65.376 42.765 64.41 41.014 56.81 45.211"/><polygon points="56.81 33.211 48.727 28.747 40.643 33.211 32.56 28.747 24.476 33.211 16.876 29.014 15.91 30.764 16.395 31.033 16.393 31.032 24.476 35.496 24.476 35.496 24.477 35.496 32.56 31.032 40.643 35.496 48.727 31.032 56.81 35.496 56.81 35.496 56.81 35.496 64.893 31.032 64.891 31.033 65.376 30.764 64.41 29.014 56.81 33.211"/><polygon points="79 68.243 79 31.757 82.95 35.707 84.364 34.292 78 27.929 71.636 34.292 73.05 35.707 77 31.757 77 68.243 73.05 64.293 71.636 65.707 78 72.071 84.364 65.707 82.95 64.293 79 68.243"/></g><text x="0" y="115" fill="#000000" font-size="5px" font-weight="bold" font-family="'Helvetica Neue', Helvetica, Arial-Unicode, Arial, Sans-serif">Created by Evgeny Filatov</text><text x="0" y="120" fill="#000000" font-size="5px" font-weight="bold" font-family="'Helvetica Neue', Helvetica, Arial-Unicode, Arial, Sans-serif">from the Noun Project</text></svg>