<?xml version="1.0" encoding="UTF-8"?>
<!DOCTYPE svg PUBLIC "-//W3C//DTD SVG 1.1//EN" "http://www.w3.org/Graphics/SVG/1.1/DTD/svg11.dtd">
<svg xmlns="http://www.w3.org/2000/svg" version="1.1" width="512px" height="512px" style="shape-rendering:geometricPrecision; text-rendering:geometricPrecision; image-rendering:optimizeQuality; fill-rule:evenodd; clip-rule:evenodd" xmlns:xlink="http://www.w3.org/1999/xlink">
<g><path style="opacity:0.97" fill="#000000" d="M 511.5,455.5 C 511.5,465.833 511.5,476.167 511.5,486.5C 506.113,486.405 500.78,486.905 495.5,488C 463.825,499.306 432.158,499.306 400.5,488C 389.496,486.033 378.496,486.033 367.5,488C 335.825,499.306 304.158,499.306 272.5,488C 261.496,486.033 250.496,486.033 239.5,488C 207.825,499.306 176.158,499.306 144.5,488C 133.496,486.033 122.496,486.033 111.5,488C 79.8248,499.306 48.1581,499.306 16.5,488C 10.8769,486.971 5.21025,486.471 -0.5,486.5C -0.5,476.167 -0.5,465.833 -0.5,455.5C 6.20575,455.448 12.8724,455.948 19.5,457C 30.7417,460.081 42.075,462.748 53.5,465C 64.9945,466.08 76.3279,465.247 87.5,462.5C 72.0739,395.628 56.4072,328.795 40.5,262C 40.5852,260.893 40.9186,259.893 41.5,259C 55.215,255.655 68.8816,252.155 82.5,248.5C 83.4999,206.172 83.8333,163.839 83.5,121.5C 109.5,121.5 135.5,121.5 161.5,121.5C 161.5,85.8333 161.5,50.1667 161.5,14.5C 224.167,14.5 286.833,14.5 349.5,14.5C 349.5,50.1667 349.5,85.8333 349.5,121.5C 375.5,121.5 401.5,121.5 427.5,121.5C 427.167,163.839 427.5,206.172 428.5,248.5C 442.118,252.155 455.785,255.655 469.5,259C 470.081,259.893 470.415,260.893 470.5,262C 454.593,328.795 438.926,395.628 423.5,462.5C 434.672,465.247 446.005,466.08 457.5,465C 468.925,462.748 480.258,460.081 491.5,457C 498.128,455.948 504.794,455.448 511.5,455.5 Z M 192.5,45.5 C 208.5,45.5 224.5,45.5 240.5,45.5C 240.5,57.1667 240.5,68.8333 240.5,80.5C 250.5,80.5 260.5,80.5 270.5,80.5C 270.5,68.8333 270.5,57.1667 270.5,45.5C 286.5,45.5 302.5,45.5 318.5,45.5C 318.5,70.8333 318.5,96.1667 318.5,121.5C 276.5,121.5 234.5,121.5 192.5,121.5C 192.5,96.1667 192.5,70.8333 192.5,45.5 Z M 114.5,152.5 C 130.167,152.5 145.833,152.5 161.5,152.5C 161.5,164.167 161.5,175.833 161.5,187.5C 171.833,187.5 182.167,187.5 192.5,187.5C 192.5,175.833 192.5,164.167 192.5,152.5C 208.5,152.5 224.5,152.5 240.5,152.5C 240.833,171.179 240.5,189.845 239.5,208.5C 198.167,219.167 156.833,229.833 115.5,240.5C 114.5,211.174 114.167,181.841 114.5,152.5 Z M 270.5,152.5 C 286.5,152.5 302.5,152.5 318.5,152.5C 318.5,164.167 318.5,175.833 318.5,187.5C 328.833,187.5 339.167,187.5 349.5,187.5C 349.5,175.833 349.5,164.167 349.5,152.5C 365.167,152.5 380.833,152.5 396.5,152.5C 396.833,181.841 396.5,211.174 395.5,240.5C 354.167,229.833 312.833,219.167 271.5,208.5C 270.5,189.845 270.167,171.179 270.5,152.5 Z M 239.5,240.5 C 240.498,266.995 240.831,293.661 240.5,320.5C 250.5,320.5 260.5,320.5 270.5,320.5C 270.333,293.831 270.5,267.165 271,240.5C 325.016,254.712 379.182,268.379 433.5,281.5C 420.162,339.187 406.662,396.854 393,454.5C 373.691,454.52 354.857,457.687 336.5,464C 325.167,466 313.833,466 302.5,464C 271.167,452.667 239.833,452.667 208.5,464C 197.167,466 185.833,466 174.5,464C 156.389,457.569 137.722,454.569 118.5,455C 104.445,397.277 90.7779,339.444 77.5,281.5C 131.761,268.435 185.761,254.768 239.5,240.5 Z"/></g>
</svg>
